<mxfile host="app.diagrams.net" modified="2021-11-05T10:02:18.172Z" agent="5.0 (Windows NT 10.0; Win64; x64) AppleWebKit/537.36 (KHTML, like Gecko) Chrome/95.0.4638.69 Safari/537.36" etag="ooH9XTP4v2JkX6Jb_GVF" version="15.6.8" type="github">
  <diagram id="vukIn5MNXSVZueGwDBdV" name="Page-1">
    <mxGraphModel dx="1210" dy="607" grid="1" gridSize="10" guides="1" tooltips="1" connect="1" arrows="1" fold="1" page="1" pageScale="1" pageWidth="827" pageHeight="1169" math="0" shadow="0">
      <root>
        <mxCell id="0" />
        <mxCell id="1" parent="0" />
        <mxCell id="XAbOuhifgv74V4JGbGuF-1" value="" style="rounded=0;whiteSpace=wrap;html=1;fillColor=#f5f5f5;fontColor=#333333;strokeColor=#666666;" vertex="1" parent="1">
          <mxGeometry x="30" y="20" width="770" height="1120" as="geometry" />
        </mxCell>
        <mxCell id="XAbOuhifgv74V4JGbGuF-2" value="&lt;h2&gt;&lt;b&gt;&amp;nbsp; LOGO&lt;/b&gt;&lt;/h2&gt;" style="rounded=0;whiteSpace=wrap;html=1;align=left;" vertex="1" parent="1">
          <mxGeometry x="30" y="20" width="770" height="40" as="geometry" />
        </mxCell>
        <mxCell id="XAbOuhifgv74V4JGbGuF-3" value="" style="rounded=0;whiteSpace=wrap;html=1;align=left;fillColor=#dae8fc;strokeColor=#6c8ebf;" vertex="1" parent="1">
          <mxGeometry x="170" y="25" width="320" height="30" as="geometry" />
        </mxCell>
        <mxCell id="XAbOuhifgv74V4JGbGuF-4" value="" style="shape=image;html=1;verticalAlign=top;verticalLabelPosition=bottom;labelBackgroundColor=#ffffff;imageAspect=0;aspect=fixed;image=https://cdn4.iconfinder.com/data/icons/ionicons/512/icon-ios7-search-strong-128.png" vertex="1" parent="1">
          <mxGeometry x="460" y="30" width="20" height="20" as="geometry" />
        </mxCell>
        <mxCell id="XAbOuhifgv74V4JGbGuF-5" value="Contact Us" style="text;html=1;strokeColor=none;fillColor=none;align=center;verticalAlign=middle;whiteSpace=wrap;rounded=0;" vertex="1" parent="1">
          <mxGeometry x="520" y="25" width="70" height="35" as="geometry" />
        </mxCell>
        <mxCell id="XAbOuhifgv74V4JGbGuF-6" value="About" style="text;html=1;strokeColor=none;fillColor=none;align=center;verticalAlign=middle;whiteSpace=wrap;rounded=0;" vertex="1" parent="1">
          <mxGeometry x="590" y="25" width="60" height="30" as="geometry" />
        </mxCell>
        <mxCell id="XAbOuhifgv74V4JGbGuF-7" value="Shop" style="text;html=1;strokeColor=none;fillColor=none;align=center;verticalAlign=middle;whiteSpace=wrap;rounded=0;" vertex="1" parent="1">
          <mxGeometry x="640" y="25" width="60" height="30" as="geometry" />
        </mxCell>
        <mxCell id="XAbOuhifgv74V4JGbGuF-8" value="" style="sketch=0;outlineConnect=0;fontColor=#232F3E;gradientColor=none;fillColor=#232F3E;strokeColor=none;dashed=0;verticalLabelPosition=bottom;verticalAlign=top;align=center;html=1;fontSize=12;fontStyle=0;aspect=fixed;pointerEvents=1;shape=mxgraph.aws4.user;" vertex="1" parent="1">
          <mxGeometry x="760" y="30" width="20" height="20" as="geometry" />
        </mxCell>
        <mxCell id="XAbOuhifgv74V4JGbGuF-9" value="This will be visible when the&amp;nbsp; user scroll the hero" style="text;html=1;strokeColor=none;fillColor=none;align=center;verticalAlign=middle;whiteSpace=wrap;rounded=0;" vertex="1" parent="1">
          <mxGeometry x="170" y="25" width="280" height="30" as="geometry" />
        </mxCell>
        <mxCell id="XAbOuhifgv74V4JGbGuF-10" value="" style="rounded=0;whiteSpace=wrap;html=1;align=left;" vertex="1" parent="1">
          <mxGeometry x="30" y="60" width="770" height="270" as="geometry" />
        </mxCell>
        <mxCell id="XAbOuhifgv74V4JGbGuF-11" value="" style="html=1;shadow=0;dashed=0;align=center;verticalAlign=middle;shape=mxgraph.arrows2.arrow;dy=0.6;dx=40;flipH=1;notch=0;fillColor=#f8cecc;strokeColor=#b85450;" vertex="1" parent="1">
          <mxGeometry x="40" y="160" width="30" height="30" as="geometry" />
        </mxCell>
        <mxCell id="XAbOuhifgv74V4JGbGuF-12" value="" style="html=1;shadow=0;dashed=0;align=center;verticalAlign=middle;shape=mxgraph.arrows2.arrow;dy=0.6;dx=40;flipH=1;notch=0;fillColor=#f8cecc;strokeColor=#b85450;rotation=-180;" vertex="1" parent="1">
          <mxGeometry x="755" y="160" width="30" height="30" as="geometry" />
        </mxCell>
        <mxCell id="XAbOuhifgv74V4JGbGuF-15" value="" style="rounded=0;whiteSpace=wrap;html=1;align=left;" vertex="1" parent="1">
          <mxGeometry x="70" y="60" width="680" height="250" as="geometry" />
        </mxCell>
        <mxCell id="XAbOuhifgv74V4JGbGuF-16" value="&lt;h1&gt;&lt;font face=&quot;Courier New&quot;&gt;Animated Text&lt;/font&gt;&lt;/h1&gt;&lt;p&gt;Here will be some more animated text but it not blink it just animate when load the page.&lt;/p&gt;" style="text;html=1;strokeColor=none;fillColor=none;spacing=5;spacingTop=-20;whiteSpace=wrap;overflow=hidden;rounded=0;align=left;" vertex="1" parent="1">
          <mxGeometry x="80" y="125" width="200" height="105" as="geometry" />
        </mxCell>
        <mxCell id="XAbOuhifgv74V4JGbGuF-17" value="" style="ellipse;whiteSpace=wrap;html=1;aspect=fixed;fontFamily=Courier New;align=left;" vertex="1" parent="1">
          <mxGeometry x="90" y="250" width="40" height="40" as="geometry" />
        </mxCell>
        <mxCell id="XAbOuhifgv74V4JGbGuF-18" value="" style="dashed=0;outlineConnect=0;html=1;align=center;labelPosition=center;verticalLabelPosition=bottom;verticalAlign=top;shape=mxgraph.weblogos.twitter;fillColor=#1DA1F2;strokeColor=none;fontFamily=Courier New;" vertex="1" parent="1">
          <mxGeometry x="95" y="255" width="30" height="30" as="geometry" />
        </mxCell>
        <mxCell id="XAbOuhifgv74V4JGbGuF-21" value="" style="ellipse;whiteSpace=wrap;html=1;aspect=fixed;fontFamily=Courier New;align=left;" vertex="1" parent="1">
          <mxGeometry x="140" y="250" width="40" height="40" as="geometry" />
        </mxCell>
        <mxCell id="XAbOuhifgv74V4JGbGuF-22" value="" style="shape=image;html=1;verticalAlign=top;verticalLabelPosition=bottom;labelBackgroundColor=#ffffff;imageAspect=0;aspect=fixed;image=https://cdn3.iconfinder.com/data/icons/free-social-icons/67/facebook_circle_color-128.png;fontFamily=Courier New;" vertex="1" parent="1">
          <mxGeometry x="140" y="250" width="40" height="40" as="geometry" />
        </mxCell>
        <mxCell id="XAbOuhifgv74V4JGbGuF-23" value="" style="ellipse;whiteSpace=wrap;html=1;aspect=fixed;fontFamily=Courier New;align=left;" vertex="1" parent="1">
          <mxGeometry x="190" y="250" width="40" height="40" as="geometry" />
        </mxCell>
        <mxCell id="XAbOuhifgv74V4JGbGuF-24" value="" style="shape=image;html=1;verticalAlign=top;verticalLabelPosition=bottom;labelBackgroundColor=#ffffff;imageAspect=0;aspect=fixed;image=https://cdn2.iconfinder.com/data/icons/social-media-2285/512/1_Instagram_colored_svg_1-128.png;fontFamily=Courier New;" vertex="1" parent="1">
          <mxGeometry x="195" y="255" width="30" height="30" as="geometry" />
        </mxCell>
        <mxCell id="XAbOuhifgv74V4JGbGuF-25" value="" style="ellipse;whiteSpace=wrap;html=1;aspect=fixed;fontFamily=Courier New;align=left;" vertex="1" parent="1">
          <mxGeometry x="240" y="250" width="40" height="40" as="geometry" />
        </mxCell>
        <mxCell id="XAbOuhifgv74V4JGbGuF-26" value="" style="shape=image;html=1;verticalAlign=top;verticalLabelPosition=bottom;labelBackgroundColor=#ffffff;imageAspect=0;aspect=fixed;image=https://cdn4.iconfinder.com/data/icons/logos-brands-in-colors/48/google-gmail-128.png;fontFamily=Courier New;" vertex="1" parent="1">
          <mxGeometry x="245" y="255" width="30" height="30" as="geometry" />
        </mxCell>
        <mxCell id="XAbOuhifgv74V4JGbGuF-27" value="" style="rounded=0;whiteSpace=wrap;html=1;fontFamily=Courier New;align=left;" vertex="1" parent="1">
          <mxGeometry x="30" y="330" width="770" height="50" as="geometry" />
        </mxCell>
        <mxCell id="XAbOuhifgv74V4JGbGuF-28" value="&lt;font face=&quot;Helvetica&quot;&gt;Latest Products&lt;/font&gt;" style="text;strokeColor=none;fillColor=none;html=1;fontSize=24;fontStyle=1;verticalAlign=middle;align=center;fontFamily=Courier New;" vertex="1" parent="1">
          <mxGeometry x="70" y="330" width="160" height="50" as="geometry" />
        </mxCell>
        <mxCell id="XAbOuhifgv74V4JGbGuF-29" value="" style="rounded=0;whiteSpace=wrap;html=1;fontFamily=Helvetica;align=left;" vertex="1" parent="1">
          <mxGeometry x="30" y="380" width="770" height="370" as="geometry" />
        </mxCell>
        <mxCell id="XAbOuhifgv74V4JGbGuF-30" value="" style="whiteSpace=wrap;html=1;aspect=fixed;fontFamily=Helvetica;align=left;" vertex="1" parent="1">
          <mxGeometry x="60" y="400" width="190" height="190" as="geometry" />
        </mxCell>
        <mxCell id="XAbOuhifgv74V4JGbGuF-31" value="" style="sketch=0;outlineConnect=0;fontColor=#232F3E;gradientColor=none;fillColor=#FF9900;strokeColor=none;dashed=0;verticalLabelPosition=bottom;verticalAlign=top;align=center;html=1;fontSize=12;fontStyle=0;aspect=fixed;pointerEvents=1;shape=mxgraph.aws4.container_registry_image;fontFamily=Helvetica;" vertex="1" parent="1">
          <mxGeometry x="105" y="410" width="90" height="90" as="geometry" />
        </mxCell>
        <mxCell id="XAbOuhifgv74V4JGbGuF-32" value="Name of the product" style="text;html=1;strokeColor=none;fillColor=none;align=center;verticalAlign=middle;whiteSpace=wrap;rounded=0;fontFamily=Helvetica;" vertex="1" parent="1">
          <mxGeometry x="50" y="500" width="130" height="20" as="geometry" />
        </mxCell>
        <mxCell id="XAbOuhifgv74V4JGbGuF-33" value="Variants and Size&amp;nbsp;" style="text;html=1;strokeColor=none;fillColor=none;align=center;verticalAlign=middle;whiteSpace=wrap;rounded=0;fontFamily=Helvetica;" vertex="1" parent="1">
          <mxGeometry x="50" y="520" width="130" height="20" as="geometry" />
        </mxCell>
        <mxCell id="XAbOuhifgv74V4JGbGuF-34" style="edgeStyle=orthogonalEdgeStyle;rounded=0;orthogonalLoop=1;jettySize=auto;html=1;exitX=0.5;exitY=1;exitDx=0;exitDy=0;fontFamily=Helvetica;" edge="1" parent="1" source="XAbOuhifgv74V4JGbGuF-33" target="XAbOuhifgv74V4JGbGuF-33">
          <mxGeometry relative="1" as="geometry" />
        </mxCell>
        <mxCell id="XAbOuhifgv74V4JGbGuF-35" value="Price of the product" style="text;html=1;strokeColor=none;fillColor=none;align=center;verticalAlign=middle;whiteSpace=wrap;rounded=0;fontFamily=Helvetica;" vertex="1" parent="1">
          <mxGeometry x="45" y="540" width="130" height="20" as="geometry" />
        </mxCell>
        <mxCell id="XAbOuhifgv74V4JGbGuF-36" value="These things will display when hover and card flip" style="text;html=1;strokeColor=none;fillColor=none;align=center;verticalAlign=middle;whiteSpace=wrap;rounded=0;fontFamily=Helvetica;" vertex="1" parent="1">
          <mxGeometry x="60" y="560" width="190" height="30" as="geometry" />
        </mxCell>
        <mxCell id="XAbOuhifgv74V4JGbGuF-41" value="" style="whiteSpace=wrap;html=1;aspect=fixed;fontFamily=Helvetica;align=left;" vertex="1" parent="1">
          <mxGeometry x="290" y="400" width="190" height="190" as="geometry" />
        </mxCell>
        <mxCell id="XAbOuhifgv74V4JGbGuF-42" value="" style="sketch=0;outlineConnect=0;fontColor=#232F3E;gradientColor=none;fillColor=#FF9900;strokeColor=none;dashed=0;verticalLabelPosition=bottom;verticalAlign=top;align=center;html=1;fontSize=12;fontStyle=0;aspect=fixed;pointerEvents=1;shape=mxgraph.aws4.container_registry_image;fontFamily=Helvetica;" vertex="1" parent="1">
          <mxGeometry x="340" y="410" width="90" height="90" as="geometry" />
        </mxCell>
        <mxCell id="XAbOuhifgv74V4JGbGuF-52" value="Name of the product" style="text;html=1;strokeColor=none;fillColor=none;align=center;verticalAlign=middle;whiteSpace=wrap;rounded=0;fontFamily=Helvetica;" vertex="1" parent="1">
          <mxGeometry x="290" y="500" width="130" height="20" as="geometry" />
        </mxCell>
        <mxCell id="XAbOuhifgv74V4JGbGuF-53" value="Variants and Size&amp;nbsp;" style="text;html=1;strokeColor=none;fillColor=none;align=center;verticalAlign=middle;whiteSpace=wrap;rounded=0;fontFamily=Helvetica;" vertex="1" parent="1">
          <mxGeometry x="284" y="520" width="130" height="20" as="geometry" />
        </mxCell>
        <mxCell id="XAbOuhifgv74V4JGbGuF-54" value="Price of the product" style="text;html=1;strokeColor=none;fillColor=none;align=center;verticalAlign=middle;whiteSpace=wrap;rounded=0;fontFamily=Helvetica;" vertex="1" parent="1">
          <mxGeometry x="284" y="540" width="130" height="20" as="geometry" />
        </mxCell>
        <mxCell id="XAbOuhifgv74V4JGbGuF-55" value="These things will display when hover and card flip" style="text;html=1;strokeColor=none;fillColor=none;align=center;verticalAlign=middle;whiteSpace=wrap;rounded=0;fontFamily=Helvetica;" vertex="1" parent="1">
          <mxGeometry x="284" y="560" width="190" height="30" as="geometry" />
        </mxCell>
        <mxCell id="XAbOuhifgv74V4JGbGuF-56" value="" style="rounded=0;whiteSpace=wrap;html=1;fontFamily=Helvetica;align=left;" vertex="1" parent="1">
          <mxGeometry x="30" y="1010" width="770" height="130" as="geometry" />
        </mxCell>
        <mxCell id="XAbOuhifgv74V4JGbGuF-57" value="" style="whiteSpace=wrap;html=1;aspect=fixed;fontFamily=Helvetica;align=left;" vertex="1" parent="1">
          <mxGeometry x="60" y="1020" width="110" height="110" as="geometry" />
        </mxCell>
        <mxCell id="XAbOuhifgv74V4JGbGuF-58" value="" style="whiteSpace=wrap;html=1;aspect=fixed;fontFamily=Helvetica;align=left;" vertex="1" parent="1">
          <mxGeometry x="230" y="1020" width="110" height="110" as="geometry" />
        </mxCell>
        <mxCell id="XAbOuhifgv74V4JGbGuF-59" value="" style="whiteSpace=wrap;html=1;aspect=fixed;fontFamily=Helvetica;align=left;" vertex="1" parent="1">
          <mxGeometry x="415" y="1020" width="110" height="110" as="geometry" />
        </mxCell>
        <mxCell id="XAbOuhifgv74V4JGbGuF-60" value="" style="whiteSpace=wrap;html=1;aspect=fixed;fontFamily=Helvetica;align=left;" vertex="1" parent="1">
          <mxGeometry x="615" y="1020" width="110" height="110" as="geometry" />
        </mxCell>
        <mxCell id="XAbOuhifgv74V4JGbGuF-61" value="" style="endArrow=none;dashed=1;html=1;dashPattern=1 3;strokeWidth=2;rounded=0;fontFamily=Helvetica;" edge="1" parent="1">
          <mxGeometry width="50" height="50" relative="1" as="geometry">
            <mxPoint x="90" y="1100" as="sourcePoint" />
            <mxPoint x="140" y="1050" as="targetPoint" />
          </mxGeometry>
        </mxCell>
        <mxCell id="XAbOuhifgv74V4JGbGuF-64" value="" style="endArrow=none;dashed=1;html=1;dashPattern=1 3;strokeWidth=2;rounded=0;fontFamily=Helvetica;" edge="1" parent="1">
          <mxGeometry width="50" height="50" relative="1" as="geometry">
            <mxPoint x="260" y="1100" as="sourcePoint" />
            <mxPoint x="310" y="1050" as="targetPoint" />
          </mxGeometry>
        </mxCell>
        <mxCell id="XAbOuhifgv74V4JGbGuF-65" value="" style="endArrow=none;dashed=1;html=1;dashPattern=1 3;strokeWidth=2;rounded=0;fontFamily=Helvetica;" edge="1" parent="1">
          <mxGeometry width="50" height="50" relative="1" as="geometry">
            <mxPoint x="450" y="1090" as="sourcePoint" />
            <mxPoint x="500" y="1040" as="targetPoint" />
          </mxGeometry>
        </mxCell>
        <mxCell id="XAbOuhifgv74V4JGbGuF-66" value="" style="endArrow=none;dashed=1;html=1;dashPattern=1 3;strokeWidth=2;rounded=0;fontFamily=Helvetica;" edge="1" parent="1">
          <mxGeometry width="50" height="50" relative="1" as="geometry">
            <mxPoint x="650" y="1090" as="sourcePoint" />
            <mxPoint x="700" y="1040" as="targetPoint" />
          </mxGeometry>
        </mxCell>
      </root>
    </mxGraphModel>
  </diagram>
</mxfile>
